<?xml version="1.0" encoding="utf-8"?>
<svg version="1.1" xmlns:xlink="http://www.w3.org/1999/xlink" width="60px" height="32px" xmlns="http://www.w3.org/2000/svg">
  <defs>
    <mask fill="white" id="clip1">
      <path d="M 0 28  L 0 4  C 0 1.76000000000001  1.62461538461538 0  3.69230769230769 0  L 56.3076923076923 0  C 58.3753846153846 0  60 1.76000000000001  60 4  L 60 18.4347826086957  L 60 28  C 60 30.24  58.3753846153846 32  56.3076923076923 32  L 3.69230769230769 32  C 1.62461538461538 32  0 30.24  0 28  Z " fill-rule="evenodd" />
    </mask>
  </defs>
  <g transform="matrix(1 0 0 1 -1114 -112 )">
    <path d="M 0 28  L 0 4  C 0 1.76000000000001  1.62461538461538 0  3.69230769230769 0  L 56.3076923076923 0  C 58.3753846153846 0  60 1.76000000000001  60 4  L 60 18.4347826086957  L 60 28  C 60 30.24  58.3753846153846 32  56.3076923076923 32  L 3.69230769230769 32  C 1.62461538461538 32  0 30.24  0 28  Z " fill-rule="nonzero" fill="#ffffff" stroke="none" transform="matrix(1 0 0 1 1114 112 )" />
    <path d="M 0 28  L 0 4  C 0 1.76000000000001  1.62461538461538 0  3.69230769230769 0  L 56.3076923076923 0  C 58.3753846153846 0  60 1.76000000000001  60 4  L 60 18.4347826086957  L 60 28  C 60 30.24  58.3753846153846 32  56.3076923076923 32  L 3.69230769230769 32  C 1.62461538461538 32  0 30.24  0 28  Z " stroke-width="2" stroke="#d9d9d9" fill="none" transform="matrix(1 0 0 1 1114 112 )" mask="url(#clip1)" />
  </g>
</svg>